<mxfile host="app.diagrams.net" agent="Mozilla/5.0 (Windows NT 10.0; Win64; x64) AppleWebKit/537.36 (KHTML, like Gecko) Chrome/135.0.0.0 Safari/537.36" version="26.2.15">
  <diagram name="Page-1" id="yTjay_rjnjRjq1NIrlaL">
    <mxGraphModel dx="1427" dy="721" grid="1" gridSize="10" guides="1" tooltips="1" connect="1" arrows="1" fold="1" page="1" pageScale="1" pageWidth="850" pageHeight="1100" math="0" shadow="0">
      <root>
        <mxCell id="0" />
        <mxCell id="1" parent="0" />
        <mxCell id="sxIpjegynjYcKhdSV3K7-9" value="bit2" style="text;html=1;align=center;verticalAlign=middle;whiteSpace=wrap;rounded=0;" parent="1" vertex="1">
          <mxGeometry x="80" y="210" width="60" height="30" as="geometry" />
        </mxCell>
        <mxCell id="sxIpjegynjYcKhdSV3K7-10" value="" style="endArrow=classic;html=1;rounded=0;exitX=1;exitY=0.5;exitDx=0;exitDy=0;entryX=0;entryY=0.25;entryDx=0;entryDy=0;" parent="1" target="sxIpjegynjYcKhdSV3K7-66" edge="1">
          <mxGeometry width="50" height="50" relative="1" as="geometry">
            <mxPoint x="200" y="220" as="sourcePoint" />
            <mxPoint x="260" y="220" as="targetPoint" />
            <Array as="points">
              <mxPoint x="250" y="220" />
              <mxPoint x="250" y="250" />
            </Array>
          </mxGeometry>
        </mxCell>
        <mxCell id="sxIpjegynjYcKhdSV3K7-14" value="bit2" style="text;html=1;align=center;verticalAlign=middle;whiteSpace=wrap;rounded=0;" parent="1" vertex="1">
          <mxGeometry x="80" y="270" width="60" height="30" as="geometry" />
        </mxCell>
        <mxCell id="sxIpjegynjYcKhdSV3K7-15" value="bit3" style="text;html=1;align=center;verticalAlign=middle;whiteSpace=wrap;rounded=0;" parent="1" vertex="1">
          <mxGeometry x="80" y="295" width="60" height="30" as="geometry" />
        </mxCell>
        <mxCell id="sxIpjegynjYcKhdSV3K7-19" value="bit3" style="text;html=1;align=center;verticalAlign=middle;whiteSpace=wrap;rounded=0;" parent="1" vertex="1">
          <mxGeometry x="80" y="350" width="60" height="30" as="geometry" />
        </mxCell>
        <mxCell id="sxIpjegynjYcKhdSV3K7-20" value="bit4" style="text;html=1;align=center;verticalAlign=middle;whiteSpace=wrap;rounded=0;" parent="1" vertex="1">
          <mxGeometry x="80" y="370" width="60" height="30" as="geometry" />
        </mxCell>
        <mxCell id="sxIpjegynjYcKhdSV3K7-24" value="bit4" style="text;html=1;align=center;verticalAlign=middle;whiteSpace=wrap;rounded=0;" parent="1" vertex="1">
          <mxGeometry x="80" y="430" width="60" height="30" as="geometry" />
        </mxCell>
        <mxCell id="sxIpjegynjYcKhdSV3K7-25" value="bit5" style="text;html=1;align=center;verticalAlign=middle;whiteSpace=wrap;rounded=0;" parent="1" vertex="1">
          <mxGeometry x="80" y="450" width="60" height="30" as="geometry" />
        </mxCell>
        <mxCell id="sxIpjegynjYcKhdSV3K7-29" value="bit5" style="text;html=1;align=center;verticalAlign=middle;whiteSpace=wrap;rounded=0;" parent="1" vertex="1">
          <mxGeometry x="80" y="510" width="60" height="30" as="geometry" />
        </mxCell>
        <mxCell id="sxIpjegynjYcKhdSV3K7-30" value="bit6" style="text;html=1;align=center;verticalAlign=middle;whiteSpace=wrap;rounded=0;" parent="1" vertex="1">
          <mxGeometry x="80" y="535" width="60" height="30" as="geometry" />
        </mxCell>
        <mxCell id="sxIpjegynjYcKhdSV3K7-34" value="bit6" style="text;html=1;align=center;verticalAlign=middle;whiteSpace=wrap;rounded=0;" parent="1" vertex="1">
          <mxGeometry x="80" y="590" width="60" height="30" as="geometry" />
        </mxCell>
        <mxCell id="sxIpjegynjYcKhdSV3K7-35" value="bit7" style="text;html=1;align=center;verticalAlign=middle;whiteSpace=wrap;rounded=0;" parent="1" vertex="1">
          <mxGeometry x="80" y="610" width="60" height="30" as="geometry" />
        </mxCell>
        <mxCell id="sxIpjegynjYcKhdSV3K7-42" value="bit7" style="text;html=1;align=center;verticalAlign=middle;whiteSpace=wrap;rounded=0;" parent="1" vertex="1">
          <mxGeometry x="80" y="670" width="60" height="30" as="geometry" />
        </mxCell>
        <mxCell id="sxIpjegynjYcKhdSV3K7-43" value="bit8" style="text;html=1;align=center;verticalAlign=middle;whiteSpace=wrap;rounded=0;" parent="1" vertex="1">
          <mxGeometry x="80" y="690" width="60" height="30" as="geometry" />
        </mxCell>
        <mxCell id="sxIpjegynjYcKhdSV3K7-49" value="" style="endArrow=classic;html=1;rounded=0;exitX=1;exitY=0.5;exitDx=0;exitDy=0;entryX=-0.05;entryY=0.74;entryDx=0;entryDy=0;entryPerimeter=0;" parent="1" target="sxIpjegynjYcKhdSV3K7-66" edge="1">
          <mxGeometry width="50" height="50" relative="1" as="geometry">
            <mxPoint x="200" y="300" as="sourcePoint" />
            <mxPoint x="260" y="300" as="targetPoint" />
            <Array as="points">
              <mxPoint x="250" y="300" />
              <mxPoint x="250" y="270" />
            </Array>
          </mxGeometry>
        </mxCell>
        <mxCell id="sxIpjegynjYcKhdSV3K7-51" value="" style="endArrow=classic;html=1;rounded=0;exitX=1;exitY=0.5;exitDx=0;exitDy=0;entryX=-0.058;entryY=0.256;entryDx=0;entryDy=0;entryPerimeter=0;" parent="1" target="sxIpjegynjYcKhdSV3K7-67" edge="1">
          <mxGeometry width="50" height="50" relative="1" as="geometry">
            <mxPoint x="200" y="380" as="sourcePoint" />
            <mxPoint x="260" y="380" as="targetPoint" />
            <Array as="points">
              <mxPoint x="260" y="380" />
              <mxPoint x="260" y="410" />
            </Array>
          </mxGeometry>
        </mxCell>
        <mxCell id="sxIpjegynjYcKhdSV3K7-53" value="" style="endArrow=classic;html=1;rounded=0;exitX=1;exitY=0.5;exitDx=0;exitDy=0;entryX=0;entryY=0.75;entryDx=0;entryDy=0;" parent="1" target="sxIpjegynjYcKhdSV3K7-67" edge="1">
          <mxGeometry width="50" height="50" relative="1" as="geometry">
            <mxPoint x="200" y="460" as="sourcePoint" />
            <mxPoint x="260" y="460" as="targetPoint" />
            <Array as="points">
              <mxPoint x="260" y="460" />
              <mxPoint x="260" y="430" />
            </Array>
          </mxGeometry>
        </mxCell>
        <mxCell id="sxIpjegynjYcKhdSV3K7-55" value="" style="endArrow=classic;html=1;rounded=0;exitX=1;exitY=0.5;exitDx=0;exitDy=0;entryX=0;entryY=0.25;entryDx=0;entryDy=0;" parent="1" target="sxIpjegynjYcKhdSV3K7-68" edge="1">
          <mxGeometry width="50" height="50" relative="1" as="geometry">
            <mxPoint x="200" y="540" as="sourcePoint" />
            <mxPoint x="260" y="540" as="targetPoint" />
            <Array as="points">
              <mxPoint x="260" y="540" />
              <mxPoint x="260" y="570" />
            </Array>
          </mxGeometry>
        </mxCell>
        <mxCell id="sxIpjegynjYcKhdSV3K7-57" value="" style="endArrow=classic;html=1;rounded=0;exitX=1;exitY=0.5;exitDx=0;exitDy=0;entryX=-0.025;entryY=0.742;entryDx=0;entryDy=0;entryPerimeter=0;" parent="1" target="sxIpjegynjYcKhdSV3K7-68" edge="1">
          <mxGeometry width="50" height="50" relative="1" as="geometry">
            <mxPoint x="200" y="620" as="sourcePoint" />
            <mxPoint x="260" y="620" as="targetPoint" />
            <Array as="points">
              <mxPoint x="260" y="620" />
              <mxPoint x="260" y="590" />
            </Array>
          </mxGeometry>
        </mxCell>
        <mxCell id="sxIpjegynjYcKhdSV3K7-59" value="" style="endArrow=classic;html=1;rounded=0;exitX=1;exitY=0.5;exitDx=0;exitDy=0;entryX=0;entryY=0.25;entryDx=0;entryDy=0;" parent="1" target="sxIpjegynjYcKhdSV3K7-69" edge="1">
          <mxGeometry width="50" height="50" relative="1" as="geometry">
            <mxPoint x="200" y="700" as="sourcePoint" />
            <mxPoint x="260" y="700" as="targetPoint" />
            <Array as="points">
              <mxPoint x="260" y="700" />
              <mxPoint x="260" y="730" />
            </Array>
          </mxGeometry>
        </mxCell>
        <mxCell id="sxIpjegynjYcKhdSV3K7-61" value="" style="endArrow=classic;html=1;rounded=0;exitX=1;exitY=0.5;exitDx=0;exitDy=0;entryX=0;entryY=0.75;entryDx=0;entryDy=0;" parent="1" target="sxIpjegynjYcKhdSV3K7-69" edge="1">
          <mxGeometry width="50" height="50" relative="1" as="geometry">
            <mxPoint x="200" y="779.58" as="sourcePoint" />
            <mxPoint x="260" y="779.58" as="targetPoint" />
            <Array as="points">
              <mxPoint x="260" y="780" />
              <mxPoint x="260" y="750" />
            </Array>
          </mxGeometry>
        </mxCell>
        <mxCell id="sxIpjegynjYcKhdSV3K7-66" value="+" style="rounded=0;whiteSpace=wrap;html=1;" parent="1" vertex="1">
          <mxGeometry x="280" y="240" width="40" height="40" as="geometry" />
        </mxCell>
        <mxCell id="sxIpjegynjYcKhdSV3K7-67" value="+" style="rounded=0;whiteSpace=wrap;html=1;" parent="1" vertex="1">
          <mxGeometry x="280" y="400" width="40" height="40" as="geometry" />
        </mxCell>
        <mxCell id="sxIpjegynjYcKhdSV3K7-68" value="+" style="rounded=0;whiteSpace=wrap;html=1;" parent="1" vertex="1">
          <mxGeometry x="280" y="560" width="40" height="40" as="geometry" />
        </mxCell>
        <mxCell id="sxIpjegynjYcKhdSV3K7-69" value="+" style="rounded=0;whiteSpace=wrap;html=1;" parent="1" vertex="1">
          <mxGeometry x="280" y="720" width="40" height="40" as="geometry" />
        </mxCell>
        <mxCell id="sxIpjegynjYcKhdSV3K7-70" value="" style="triangle;whiteSpace=wrap;html=1;direction=north;" parent="1" vertex="1">
          <mxGeometry x="295" y="270" width="10" height="10" as="geometry" />
        </mxCell>
        <mxCell id="sxIpjegynjYcKhdSV3K7-71" value="" style="triangle;whiteSpace=wrap;html=1;direction=north;" parent="1" vertex="1">
          <mxGeometry x="295" y="430" width="10" height="10" as="geometry" />
        </mxCell>
        <mxCell id="sxIpjegynjYcKhdSV3K7-72" value="" style="triangle;whiteSpace=wrap;html=1;direction=north;" parent="1" vertex="1">
          <mxGeometry x="295" y="590" width="10" height="10" as="geometry" />
        </mxCell>
        <mxCell id="sxIpjegynjYcKhdSV3K7-73" value="" style="triangle;whiteSpace=wrap;html=1;direction=north;" parent="1" vertex="1">
          <mxGeometry x="295" y="750" width="10" height="10" as="geometry" />
        </mxCell>
        <mxCell id="sxIpjegynjYcKhdSV3K7-74" value="+" style="rounded=0;whiteSpace=wrap;html=1;" parent="1" vertex="1">
          <mxGeometry x="360" y="320" width="40" height="40" as="geometry" />
        </mxCell>
        <mxCell id="sxIpjegynjYcKhdSV3K7-75" value="" style="triangle;whiteSpace=wrap;html=1;direction=north;" parent="1" vertex="1">
          <mxGeometry x="375" y="350" width="10" height="10" as="geometry" />
        </mxCell>
        <mxCell id="sxIpjegynjYcKhdSV3K7-76" value="" style="endArrow=classic;html=1;rounded=0;exitX=1;exitY=0.5;exitDx=0;exitDy=0;entryX=0;entryY=0.25;entryDx=0;entryDy=0;" parent="1" source="sxIpjegynjYcKhdSV3K7-66" target="sxIpjegynjYcKhdSV3K7-74" edge="1">
          <mxGeometry width="50" height="50" relative="1" as="geometry">
            <mxPoint x="385" y="300" as="sourcePoint" />
            <mxPoint x="435" y="250" as="targetPoint" />
            <Array as="points">
              <mxPoint x="340" y="260" />
              <mxPoint x="340" y="330" />
            </Array>
          </mxGeometry>
        </mxCell>
        <mxCell id="sxIpjegynjYcKhdSV3K7-77" value="" style="endArrow=classic;html=1;rounded=0;exitX=1;exitY=0.5;exitDx=0;exitDy=0;entryX=0;entryY=0.75;entryDx=0;entryDy=0;" parent="1" source="sxIpjegynjYcKhdSV3K7-67" target="sxIpjegynjYcKhdSV3K7-74" edge="1">
          <mxGeometry width="50" height="50" relative="1" as="geometry">
            <mxPoint x="355" y="420" as="sourcePoint" />
            <mxPoint x="405" y="370" as="targetPoint" />
            <Array as="points">
              <mxPoint x="340" y="420" />
              <mxPoint x="340" y="350" />
            </Array>
          </mxGeometry>
        </mxCell>
        <mxCell id="sxIpjegynjYcKhdSV3K7-78" value="+" style="rounded=0;whiteSpace=wrap;html=1;" parent="1" vertex="1">
          <mxGeometry x="360" y="640" width="40" height="40" as="geometry" />
        </mxCell>
        <mxCell id="sxIpjegynjYcKhdSV3K7-79" value="" style="triangle;whiteSpace=wrap;html=1;direction=north;" parent="1" vertex="1">
          <mxGeometry x="375" y="670" width="10" height="10" as="geometry" />
        </mxCell>
        <mxCell id="sxIpjegynjYcKhdSV3K7-80" value="" style="endArrow=classic;html=1;rounded=0;exitX=1;exitY=0.5;exitDx=0;exitDy=0;entryX=0;entryY=0.25;entryDx=0;entryDy=0;" parent="1" source="sxIpjegynjYcKhdSV3K7-68" target="sxIpjegynjYcKhdSV3K7-78" edge="1">
          <mxGeometry width="50" height="50" relative="1" as="geometry">
            <mxPoint x="375" y="620" as="sourcePoint" />
            <mxPoint x="425" y="570" as="targetPoint" />
            <Array as="points">
              <mxPoint x="340" y="580" />
              <mxPoint x="340" y="650" />
            </Array>
          </mxGeometry>
        </mxCell>
        <mxCell id="sxIpjegynjYcKhdSV3K7-81" value="" style="endArrow=classic;html=1;rounded=0;exitX=1;exitY=0.5;exitDx=0;exitDy=0;entryX=0;entryY=0.75;entryDx=0;entryDy=0;" parent="1" source="sxIpjegynjYcKhdSV3K7-69" target="sxIpjegynjYcKhdSV3K7-78" edge="1">
          <mxGeometry width="50" height="50" relative="1" as="geometry">
            <mxPoint x="420" y="770" as="sourcePoint" />
            <mxPoint x="470" y="720" as="targetPoint" />
            <Array as="points">
              <mxPoint x="340" y="740" />
              <mxPoint x="340" y="670" />
            </Array>
          </mxGeometry>
        </mxCell>
        <mxCell id="sxIpjegynjYcKhdSV3K7-82" value="+" style="rounded=0;whiteSpace=wrap;html=1;" parent="1" vertex="1">
          <mxGeometry x="465" y="480" width="40" height="40" as="geometry" />
        </mxCell>
        <mxCell id="sxIpjegynjYcKhdSV3K7-83" value="" style="triangle;whiteSpace=wrap;html=1;direction=north;" parent="1" vertex="1">
          <mxGeometry x="480" y="510" width="10" height="10" as="geometry" />
        </mxCell>
        <mxCell id="sxIpjegynjYcKhdSV3K7-84" value="" style="endArrow=classic;html=1;rounded=0;exitX=1;exitY=0.5;exitDx=0;exitDy=0;entryX=0;entryY=0.25;entryDx=0;entryDy=0;" parent="1" source="sxIpjegynjYcKhdSV3K7-74" target="sxIpjegynjYcKhdSV3K7-82" edge="1">
          <mxGeometry width="50" height="50" relative="1" as="geometry">
            <mxPoint x="480" y="450" as="sourcePoint" />
            <mxPoint x="530" y="400" as="targetPoint" />
            <Array as="points">
              <mxPoint x="440" y="340" />
              <mxPoint x="440" y="490" />
            </Array>
          </mxGeometry>
        </mxCell>
        <mxCell id="sxIpjegynjYcKhdSV3K7-85" value="" style="endArrow=classic;html=1;rounded=0;exitX=1;exitY=0.5;exitDx=0;exitDy=0;entryX=0;entryY=0.75;entryDx=0;entryDy=0;" parent="1" source="sxIpjegynjYcKhdSV3K7-78" target="sxIpjegynjYcKhdSV3K7-82" edge="1">
          <mxGeometry width="50" height="50" relative="1" as="geometry">
            <mxPoint x="455" y="660" as="sourcePoint" />
            <mxPoint x="505" y="610" as="targetPoint" />
            <Array as="points">
              <mxPoint x="440" y="660" />
              <mxPoint x="440" y="510" />
            </Array>
          </mxGeometry>
        </mxCell>
        <mxCell id="sxIpjegynjYcKhdSV3K7-86" value="&amp;gt; 2" style="rounded=0;whiteSpace=wrap;html=1;" parent="1" vertex="1">
          <mxGeometry x="500" y="562.5" width="80" height="60" as="geometry" />
        </mxCell>
        <mxCell id="sxIpjegynjYcKhdSV3K7-87" value="" style="endArrow=classic;html=1;rounded=0;exitX=1;exitY=0.5;exitDx=0;exitDy=0;entryX=0.5;entryY=0;entryDx=0;entryDy=0;" parent="1" source="sxIpjegynjYcKhdSV3K7-82" target="sxIpjegynjYcKhdSV3K7-86" edge="1">
          <mxGeometry width="50" height="50" relative="1" as="geometry">
            <mxPoint x="585" y="520" as="sourcePoint" />
            <mxPoint x="635" y="470" as="targetPoint" />
            <Array as="points">
              <mxPoint x="540" y="500" />
            </Array>
          </mxGeometry>
        </mxCell>
        <mxCell id="sxIpjegynjYcKhdSV3K7-91" value="" style="endArrow=classic;html=1;rounded=0;exitX=0.5;exitY=1;exitDx=0;exitDy=0;" parent="1" source="sxIpjegynjYcKhdSV3K7-86" edge="1">
          <mxGeometry width="50" height="50" relative="1" as="geometry">
            <mxPoint x="590" y="747.5" as="sourcePoint" />
            <mxPoint x="540" y="680" as="targetPoint" />
          </mxGeometry>
        </mxCell>
        <mxCell id="sxIpjegynjYcKhdSV3K7-92" value="" style="shape=trapezoid;perimeter=trapezoidPerimeter;whiteSpace=wrap;html=1;fixedSize=1;direction=south;" parent="1" vertex="1">
          <mxGeometry x="520" y="670" width="40" height="120" as="geometry" />
        </mxCell>
        <mxCell id="sxIpjegynjYcKhdSV3K7-93" value="0" style="text;html=1;align=center;verticalAlign=middle;whiteSpace=wrap;rounded=0;" parent="1" vertex="1">
          <mxGeometry x="525" y="690" width="30" height="30" as="geometry" />
        </mxCell>
        <mxCell id="sxIpjegynjYcKhdSV3K7-94" value="1" style="text;html=1;align=center;verticalAlign=middle;whiteSpace=wrap;rounded=0;" parent="1" vertex="1">
          <mxGeometry x="510" y="740" width="60" height="30" as="geometry" />
        </mxCell>
        <mxCell id="sxIpjegynjYcKhdSV3K7-95" value="" style="endArrow=classic;html=1;rounded=0;entryX=-0.003;entryY=0.356;entryDx=0;entryDy=0;entryPerimeter=0;" parent="1" edge="1">
          <mxGeometry width="50" height="50" relative="1" as="geometry">
            <mxPoint x="480.18" y="759.32" as="sourcePoint" />
            <mxPoint x="520" y="759.9999999999999" as="targetPoint" />
          </mxGeometry>
        </mxCell>
        <mxCell id="sxIpjegynjYcKhdSV3K7-96" value="9" style="text;html=1;align=center;verticalAlign=middle;whiteSpace=wrap;rounded=0;" parent="1" vertex="1">
          <mxGeometry x="460" y="730" width="60" height="30" as="geometry" />
        </mxCell>
        <mxCell id="sxIpjegynjYcKhdSV3K7-97" value="" style="endArrow=classic;html=1;rounded=0;exitX=1;exitY=0;exitDx=0;exitDy=0;entryX=0.381;entryY=1.034;entryDx=0;entryDy=0;entryPerimeter=0;" parent="1" target="sxIpjegynjYcKhdSV3K7-98" edge="1">
          <mxGeometry width="50" height="50" relative="1" as="geometry">
            <mxPoint x="560" y="728.98" as="sourcePoint" />
            <mxPoint x="640" y="728.98" as="targetPoint" />
          </mxGeometry>
        </mxCell>
        <mxCell id="sxIpjegynjYcKhdSV3K7-98" value="data_o [3:0]" style="text;html=1;align=center;verticalAlign=middle;whiteSpace=wrap;rounded=0;" parent="1" vertex="1">
          <mxGeometry x="585" y="698.98" width="60" height="30" as="geometry" />
        </mxCell>
        <mxCell id="OsVrMNJ0mrb18MnXRC7H-3" value="" style="group" parent="1" vertex="1" connectable="0">
          <mxGeometry x="120" y="180" width="106" height="70" as="geometry" />
        </mxCell>
        <mxCell id="sxIpjegynjYcKhdSV3K7-5" value="" style="endArrow=classic;html=1;rounded=0;entryX=0;entryY=0.25;entryDx=0;entryDy=0;" parent="OsVrMNJ0mrb18MnXRC7H-3" edge="1">
          <mxGeometry width="50" height="50" relative="1" as="geometry">
            <mxPoint y="30" as="sourcePoint" />
            <mxPoint x="40" y="30" as="targetPoint" />
          </mxGeometry>
        </mxCell>
        <mxCell id="sxIpjegynjYcKhdSV3K7-6" value="" style="endArrow=classic;html=1;rounded=0;entryX=0;entryY=0.25;entryDx=0;entryDy=0;" parent="OsVrMNJ0mrb18MnXRC7H-3" edge="1">
          <mxGeometry width="50" height="50" relative="1" as="geometry">
            <mxPoint y="50" as="sourcePoint" />
            <mxPoint x="40" y="50" as="targetPoint" />
          </mxGeometry>
        </mxCell>
        <mxCell id="OsVrMNJ0mrb18MnXRC7H-2" value="XOR" style="ellipse;shape=cloud;whiteSpace=wrap;html=1;" parent="OsVrMNJ0mrb18MnXRC7H-3" vertex="1">
          <mxGeometry x="36" width="70" height="70" as="geometry" />
        </mxCell>
        <mxCell id="OsVrMNJ0mrb18MnXRC7H-4" value="" style="group" parent="1" vertex="1" connectable="0">
          <mxGeometry x="120" y="260" width="106" height="70" as="geometry" />
        </mxCell>
        <mxCell id="OsVrMNJ0mrb18MnXRC7H-5" value="" style="endArrow=classic;html=1;rounded=0;entryX=0;entryY=0.25;entryDx=0;entryDy=0;" parent="OsVrMNJ0mrb18MnXRC7H-4" edge="1">
          <mxGeometry width="50" height="50" relative="1" as="geometry">
            <mxPoint y="30" as="sourcePoint" />
            <mxPoint x="40" y="30" as="targetPoint" />
          </mxGeometry>
        </mxCell>
        <mxCell id="OsVrMNJ0mrb18MnXRC7H-6" value="" style="endArrow=classic;html=1;rounded=0;entryX=0;entryY=0.25;entryDx=0;entryDy=0;" parent="OsVrMNJ0mrb18MnXRC7H-4" edge="1">
          <mxGeometry width="50" height="50" relative="1" as="geometry">
            <mxPoint y="50" as="sourcePoint" />
            <mxPoint x="40" y="50" as="targetPoint" />
          </mxGeometry>
        </mxCell>
        <mxCell id="OsVrMNJ0mrb18MnXRC7H-7" value="XOR" style="ellipse;shape=cloud;whiteSpace=wrap;html=1;" parent="OsVrMNJ0mrb18MnXRC7H-4" vertex="1">
          <mxGeometry x="36" width="70" height="70" as="geometry" />
        </mxCell>
        <mxCell id="OsVrMNJ0mrb18MnXRC7H-8" value="" style="group" parent="1" vertex="1" connectable="0">
          <mxGeometry x="120" y="340" width="106" height="70" as="geometry" />
        </mxCell>
        <mxCell id="OsVrMNJ0mrb18MnXRC7H-9" value="" style="endArrow=classic;html=1;rounded=0;entryX=0;entryY=0.25;entryDx=0;entryDy=0;" parent="OsVrMNJ0mrb18MnXRC7H-8" edge="1">
          <mxGeometry width="50" height="50" relative="1" as="geometry">
            <mxPoint y="30" as="sourcePoint" />
            <mxPoint x="40" y="30" as="targetPoint" />
          </mxGeometry>
        </mxCell>
        <mxCell id="OsVrMNJ0mrb18MnXRC7H-10" value="" style="endArrow=classic;html=1;rounded=0;entryX=0;entryY=0.25;entryDx=0;entryDy=0;" parent="OsVrMNJ0mrb18MnXRC7H-8" edge="1">
          <mxGeometry width="50" height="50" relative="1" as="geometry">
            <mxPoint y="50" as="sourcePoint" />
            <mxPoint x="40" y="50" as="targetPoint" />
          </mxGeometry>
        </mxCell>
        <mxCell id="OsVrMNJ0mrb18MnXRC7H-11" value="XOR" style="ellipse;shape=cloud;whiteSpace=wrap;html=1;" parent="OsVrMNJ0mrb18MnXRC7H-8" vertex="1">
          <mxGeometry x="36" width="70" height="70" as="geometry" />
        </mxCell>
        <mxCell id="OsVrMNJ0mrb18MnXRC7H-12" value="" style="group" parent="1" vertex="1" connectable="0">
          <mxGeometry x="120" y="420" width="106" height="70" as="geometry" />
        </mxCell>
        <mxCell id="OsVrMNJ0mrb18MnXRC7H-13" value="" style="endArrow=classic;html=1;rounded=0;entryX=0;entryY=0.25;entryDx=0;entryDy=0;" parent="OsVrMNJ0mrb18MnXRC7H-12" edge="1">
          <mxGeometry width="50" height="50" relative="1" as="geometry">
            <mxPoint y="30" as="sourcePoint" />
            <mxPoint x="40" y="30" as="targetPoint" />
          </mxGeometry>
        </mxCell>
        <mxCell id="OsVrMNJ0mrb18MnXRC7H-14" value="" style="endArrow=classic;html=1;rounded=0;entryX=0;entryY=0.25;entryDx=0;entryDy=0;" parent="OsVrMNJ0mrb18MnXRC7H-12" edge="1">
          <mxGeometry width="50" height="50" relative="1" as="geometry">
            <mxPoint y="50" as="sourcePoint" />
            <mxPoint x="40" y="50" as="targetPoint" />
          </mxGeometry>
        </mxCell>
        <mxCell id="OsVrMNJ0mrb18MnXRC7H-15" value="XOR" style="ellipse;shape=cloud;whiteSpace=wrap;html=1;" parent="OsVrMNJ0mrb18MnXRC7H-12" vertex="1">
          <mxGeometry x="36" width="70" height="70" as="geometry" />
        </mxCell>
        <mxCell id="OsVrMNJ0mrb18MnXRC7H-16" value="" style="group" parent="1" vertex="1" connectable="0">
          <mxGeometry x="120" y="500" width="106" height="70" as="geometry" />
        </mxCell>
        <mxCell id="OsVrMNJ0mrb18MnXRC7H-17" value="" style="endArrow=classic;html=1;rounded=0;entryX=0;entryY=0.25;entryDx=0;entryDy=0;" parent="OsVrMNJ0mrb18MnXRC7H-16" edge="1">
          <mxGeometry width="50" height="50" relative="1" as="geometry">
            <mxPoint y="30" as="sourcePoint" />
            <mxPoint x="40" y="30" as="targetPoint" />
          </mxGeometry>
        </mxCell>
        <mxCell id="OsVrMNJ0mrb18MnXRC7H-18" value="" style="endArrow=classic;html=1;rounded=0;entryX=0;entryY=0.25;entryDx=0;entryDy=0;" parent="OsVrMNJ0mrb18MnXRC7H-16" edge="1">
          <mxGeometry width="50" height="50" relative="1" as="geometry">
            <mxPoint y="50" as="sourcePoint" />
            <mxPoint x="40" y="50" as="targetPoint" />
          </mxGeometry>
        </mxCell>
        <mxCell id="OsVrMNJ0mrb18MnXRC7H-19" value="XOR" style="ellipse;shape=cloud;whiteSpace=wrap;html=1;" parent="OsVrMNJ0mrb18MnXRC7H-16" vertex="1">
          <mxGeometry x="36" width="70" height="70" as="geometry" />
        </mxCell>
        <mxCell id="OsVrMNJ0mrb18MnXRC7H-20" value="" style="group" parent="1" vertex="1" connectable="0">
          <mxGeometry x="120" y="580" width="106" height="70" as="geometry" />
        </mxCell>
        <mxCell id="OsVrMNJ0mrb18MnXRC7H-21" value="" style="endArrow=classic;html=1;rounded=0;entryX=0;entryY=0.25;entryDx=0;entryDy=0;" parent="OsVrMNJ0mrb18MnXRC7H-20" edge="1">
          <mxGeometry width="50" height="50" relative="1" as="geometry">
            <mxPoint y="30" as="sourcePoint" />
            <mxPoint x="40" y="30" as="targetPoint" />
          </mxGeometry>
        </mxCell>
        <mxCell id="OsVrMNJ0mrb18MnXRC7H-22" value="" style="endArrow=classic;html=1;rounded=0;entryX=0;entryY=0.25;entryDx=0;entryDy=0;" parent="OsVrMNJ0mrb18MnXRC7H-20" edge="1">
          <mxGeometry width="50" height="50" relative="1" as="geometry">
            <mxPoint y="50" as="sourcePoint" />
            <mxPoint x="40" y="50" as="targetPoint" />
          </mxGeometry>
        </mxCell>
        <mxCell id="OsVrMNJ0mrb18MnXRC7H-23" value="XOR" style="ellipse;shape=cloud;whiteSpace=wrap;html=1;" parent="OsVrMNJ0mrb18MnXRC7H-20" vertex="1">
          <mxGeometry x="36" width="70" height="70" as="geometry" />
        </mxCell>
        <mxCell id="OsVrMNJ0mrb18MnXRC7H-24" value="" style="group" parent="1" vertex="1" connectable="0">
          <mxGeometry x="120" y="660" width="106" height="70" as="geometry" />
        </mxCell>
        <mxCell id="OsVrMNJ0mrb18MnXRC7H-25" value="" style="endArrow=classic;html=1;rounded=0;entryX=0;entryY=0.25;entryDx=0;entryDy=0;" parent="OsVrMNJ0mrb18MnXRC7H-24" edge="1">
          <mxGeometry width="50" height="50" relative="1" as="geometry">
            <mxPoint y="30" as="sourcePoint" />
            <mxPoint x="40" y="30" as="targetPoint" />
          </mxGeometry>
        </mxCell>
        <mxCell id="OsVrMNJ0mrb18MnXRC7H-26" value="" style="endArrow=classic;html=1;rounded=0;entryX=0;entryY=0.25;entryDx=0;entryDy=0;" parent="OsVrMNJ0mrb18MnXRC7H-24" edge="1">
          <mxGeometry width="50" height="50" relative="1" as="geometry">
            <mxPoint y="50" as="sourcePoint" />
            <mxPoint x="40" y="50" as="targetPoint" />
          </mxGeometry>
        </mxCell>
        <mxCell id="OsVrMNJ0mrb18MnXRC7H-27" value="XOR" style="ellipse;shape=cloud;whiteSpace=wrap;html=1;" parent="OsVrMNJ0mrb18MnXRC7H-24" vertex="1">
          <mxGeometry x="36" width="70" height="70" as="geometry" />
        </mxCell>
        <mxCell id="OsVrMNJ0mrb18MnXRC7H-28" value="" style="group" parent="1" vertex="1" connectable="0">
          <mxGeometry x="120" y="740" width="106" height="70" as="geometry" />
        </mxCell>
        <mxCell id="OsVrMNJ0mrb18MnXRC7H-29" value="" style="endArrow=classic;html=1;rounded=0;entryX=0;entryY=0.25;entryDx=0;entryDy=0;" parent="OsVrMNJ0mrb18MnXRC7H-28" edge="1">
          <mxGeometry width="50" height="50" relative="1" as="geometry">
            <mxPoint y="30" as="sourcePoint" />
            <mxPoint x="40" y="30" as="targetPoint" />
          </mxGeometry>
        </mxCell>
        <mxCell id="OsVrMNJ0mrb18MnXRC7H-30" value="" style="endArrow=classic;html=1;rounded=0;entryX=0;entryY=0.25;entryDx=0;entryDy=0;" parent="OsVrMNJ0mrb18MnXRC7H-28" edge="1">
          <mxGeometry width="50" height="50" relative="1" as="geometry">
            <mxPoint y="50" as="sourcePoint" />
            <mxPoint x="40" y="50" as="targetPoint" />
          </mxGeometry>
        </mxCell>
        <mxCell id="OsVrMNJ0mrb18MnXRC7H-31" value="XOR" style="ellipse;shape=cloud;whiteSpace=wrap;html=1;" parent="OsVrMNJ0mrb18MnXRC7H-28" vertex="1">
          <mxGeometry x="36" width="70" height="70" as="geometry" />
        </mxCell>
        <mxCell id="sxIpjegynjYcKhdSV3K7-8" value="bit1" style="text;html=1;align=center;verticalAlign=middle;whiteSpace=wrap;rounded=0;" parent="1" vertex="1">
          <mxGeometry x="80" y="190" width="60" height="30" as="geometry" />
        </mxCell>
        <mxCell id="OsVrMNJ0mrb18MnXRC7H-32" value="bit8" style="text;html=1;align=center;verticalAlign=middle;whiteSpace=wrap;rounded=0;" parent="1" vertex="1">
          <mxGeometry x="80" y="750" width="60" height="30" as="geometry" />
        </mxCell>
        <mxCell id="OsVrMNJ0mrb18MnXRC7H-33" value="bit1" style="text;html=1;align=center;verticalAlign=middle;whiteSpace=wrap;rounded=0;" parent="1" vertex="1">
          <mxGeometry x="80" y="770" width="60" height="30" as="geometry" />
        </mxCell>
        <mxCell id="OsVrMNJ0mrb18MnXRC7H-63" value="+" style="rounded=0;whiteSpace=wrap;html=1;" parent="1" vertex="1">
          <mxGeometry x="540" y="165" width="40" height="40" as="geometry" />
        </mxCell>
        <mxCell id="OsVrMNJ0mrb18MnXRC7H-64" value="" style="endArrow=classic;html=1;rounded=0;entryX=0;entryY=0.25;entryDx=0;entryDy=0;" parent="1" edge="1">
          <mxGeometry width="50" height="50" relative="1" as="geometry">
            <mxPoint x="500" y="175" as="sourcePoint" />
            <mxPoint x="540" y="175" as="targetPoint" />
          </mxGeometry>
        </mxCell>
        <mxCell id="OsVrMNJ0mrb18MnXRC7H-65" value="" style="endArrow=classic;html=1;rounded=0;entryX=0;entryY=0.25;entryDx=0;entryDy=0;" parent="1" edge="1">
          <mxGeometry width="50" height="50" relative="1" as="geometry">
            <mxPoint x="500" y="195" as="sourcePoint" />
            <mxPoint x="540" y="195" as="targetPoint" />
          </mxGeometry>
        </mxCell>
        <mxCell id="OsVrMNJ0mrb18MnXRC7H-66" value="bit1" style="text;html=1;align=center;verticalAlign=middle;whiteSpace=wrap;rounded=0;" parent="1" vertex="1">
          <mxGeometry x="450" y="145" width="60" height="30" as="geometry" />
        </mxCell>
        <mxCell id="OsVrMNJ0mrb18MnXRC7H-67" value="bit2" style="text;html=1;align=center;verticalAlign=middle;whiteSpace=wrap;rounded=0;" parent="1" vertex="1">
          <mxGeometry x="450" y="175" width="60" height="30" as="geometry" />
        </mxCell>
        <mxCell id="OsVrMNJ0mrb18MnXRC7H-68" value="+" style="rounded=0;whiteSpace=wrap;html=1;" parent="1" vertex="1">
          <mxGeometry x="540" y="245" width="40" height="40" as="geometry" />
        </mxCell>
        <mxCell id="OsVrMNJ0mrb18MnXRC7H-69" value="" style="endArrow=classic;html=1;rounded=0;entryX=0;entryY=0.25;entryDx=0;entryDy=0;" parent="1" edge="1">
          <mxGeometry width="50" height="50" relative="1" as="geometry">
            <mxPoint x="500" y="255" as="sourcePoint" />
            <mxPoint x="540" y="255" as="targetPoint" />
          </mxGeometry>
        </mxCell>
        <mxCell id="OsVrMNJ0mrb18MnXRC7H-70" value="" style="endArrow=classic;html=1;rounded=0;entryX=0;entryY=0.25;entryDx=0;entryDy=0;" parent="1" edge="1">
          <mxGeometry width="50" height="50" relative="1" as="geometry">
            <mxPoint x="500" y="275" as="sourcePoint" />
            <mxPoint x="540" y="275" as="targetPoint" />
          </mxGeometry>
        </mxCell>
        <mxCell id="OsVrMNJ0mrb18MnXRC7H-71" value="bit3" style="text;html=1;align=center;verticalAlign=middle;whiteSpace=wrap;rounded=0;" parent="1" vertex="1">
          <mxGeometry x="450" y="225" width="60" height="30" as="geometry" />
        </mxCell>
        <mxCell id="OsVrMNJ0mrb18MnXRC7H-72" value="bit4" style="text;html=1;align=center;verticalAlign=middle;whiteSpace=wrap;rounded=0;" parent="1" vertex="1">
          <mxGeometry x="450" y="255" width="60" height="30" as="geometry" />
        </mxCell>
        <mxCell id="OsVrMNJ0mrb18MnXRC7H-73" value="+" style="rounded=0;whiteSpace=wrap;html=1;" parent="1" vertex="1">
          <mxGeometry x="540" y="325" width="40" height="40" as="geometry" />
        </mxCell>
        <mxCell id="OsVrMNJ0mrb18MnXRC7H-74" value="" style="endArrow=classic;html=1;rounded=0;entryX=0;entryY=0.25;entryDx=0;entryDy=0;" parent="1" edge="1">
          <mxGeometry width="50" height="50" relative="1" as="geometry">
            <mxPoint x="500" y="335" as="sourcePoint" />
            <mxPoint x="540" y="335" as="targetPoint" />
          </mxGeometry>
        </mxCell>
        <mxCell id="OsVrMNJ0mrb18MnXRC7H-75" value="" style="endArrow=classic;html=1;rounded=0;entryX=0;entryY=0.25;entryDx=0;entryDy=0;" parent="1" edge="1">
          <mxGeometry width="50" height="50" relative="1" as="geometry">
            <mxPoint x="500" y="355" as="sourcePoint" />
            <mxPoint x="540" y="355" as="targetPoint" />
          </mxGeometry>
        </mxCell>
        <mxCell id="OsVrMNJ0mrb18MnXRC7H-76" value="bit5" style="text;html=1;align=center;verticalAlign=middle;whiteSpace=wrap;rounded=0;" parent="1" vertex="1">
          <mxGeometry x="450" y="305" width="60" height="30" as="geometry" />
        </mxCell>
        <mxCell id="OsVrMNJ0mrb18MnXRC7H-77" value="bit6" style="text;html=1;align=center;verticalAlign=middle;whiteSpace=wrap;rounded=0;" parent="1" vertex="1">
          <mxGeometry x="450" y="335" width="60" height="30" as="geometry" />
        </mxCell>
        <mxCell id="OsVrMNJ0mrb18MnXRC7H-78" value="+" style="rounded=0;whiteSpace=wrap;html=1;" parent="1" vertex="1">
          <mxGeometry x="540" y="405" width="40" height="40" as="geometry" />
        </mxCell>
        <mxCell id="OsVrMNJ0mrb18MnXRC7H-79" value="" style="endArrow=classic;html=1;rounded=0;entryX=0;entryY=0.25;entryDx=0;entryDy=0;" parent="1" edge="1">
          <mxGeometry width="50" height="50" relative="1" as="geometry">
            <mxPoint x="500" y="415" as="sourcePoint" />
            <mxPoint x="540" y="415" as="targetPoint" />
          </mxGeometry>
        </mxCell>
        <mxCell id="OsVrMNJ0mrb18MnXRC7H-80" value="" style="endArrow=classic;html=1;rounded=0;entryX=0;entryY=0.25;entryDx=0;entryDy=0;" parent="1" edge="1">
          <mxGeometry width="50" height="50" relative="1" as="geometry">
            <mxPoint x="500" y="435" as="sourcePoint" />
            <mxPoint x="540" y="435" as="targetPoint" />
          </mxGeometry>
        </mxCell>
        <mxCell id="OsVrMNJ0mrb18MnXRC7H-81" value="bit7" style="text;html=1;align=center;verticalAlign=middle;whiteSpace=wrap;rounded=0;" parent="1" vertex="1">
          <mxGeometry x="450" y="395" width="60" height="30" as="geometry" />
        </mxCell>
        <mxCell id="OsVrMNJ0mrb18MnXRC7H-82" value="bit8" style="text;html=1;align=center;verticalAlign=middle;whiteSpace=wrap;rounded=0;" parent="1" vertex="1">
          <mxGeometry x="450" y="415" width="60" height="30" as="geometry" />
        </mxCell>
        <mxCell id="OsVrMNJ0mrb18MnXRC7H-83" value="" style="triangle;whiteSpace=wrap;html=1;direction=north;" parent="1" vertex="1">
          <mxGeometry x="555" y="195" width="10" height="10" as="geometry" />
        </mxCell>
        <mxCell id="OsVrMNJ0mrb18MnXRC7H-84" value="" style="triangle;whiteSpace=wrap;html=1;direction=north;" parent="1" vertex="1">
          <mxGeometry x="555" y="275" width="10" height="10" as="geometry" />
        </mxCell>
        <mxCell id="OsVrMNJ0mrb18MnXRC7H-85" value="" style="triangle;whiteSpace=wrap;html=1;direction=north;" parent="1" vertex="1">
          <mxGeometry x="555" y="355" width="10" height="10" as="geometry" />
        </mxCell>
        <mxCell id="OsVrMNJ0mrb18MnXRC7H-86" value="" style="triangle;whiteSpace=wrap;html=1;direction=north;" parent="1" vertex="1">
          <mxGeometry x="555" y="435" width="10" height="10" as="geometry" />
        </mxCell>
        <mxCell id="OsVrMNJ0mrb18MnXRC7H-87" value="+" style="rounded=0;whiteSpace=wrap;html=1;" parent="1" vertex="1">
          <mxGeometry x="620" y="205" width="40" height="40" as="geometry" />
        </mxCell>
        <mxCell id="OsVrMNJ0mrb18MnXRC7H-88" value="" style="triangle;whiteSpace=wrap;html=1;direction=north;" parent="1" vertex="1">
          <mxGeometry x="635" y="235" width="10" height="10" as="geometry" />
        </mxCell>
        <mxCell id="OsVrMNJ0mrb18MnXRC7H-89" value="+" style="rounded=0;whiteSpace=wrap;html=1;" parent="1" vertex="1">
          <mxGeometry x="620" y="365" width="40" height="40" as="geometry" />
        </mxCell>
        <mxCell id="OsVrMNJ0mrb18MnXRC7H-90" value="" style="triangle;whiteSpace=wrap;html=1;direction=north;" parent="1" vertex="1">
          <mxGeometry x="635" y="395" width="10" height="10" as="geometry" />
        </mxCell>
        <mxCell id="OsVrMNJ0mrb18MnXRC7H-91" value="+" style="rounded=0;whiteSpace=wrap;html=1;" parent="1" vertex="1">
          <mxGeometry x="685" y="285" width="40" height="40" as="geometry" />
        </mxCell>
        <mxCell id="OsVrMNJ0mrb18MnXRC7H-92" value="" style="triangle;whiteSpace=wrap;html=1;direction=north;" parent="1" vertex="1">
          <mxGeometry x="700" y="315" width="10" height="10" as="geometry" />
        </mxCell>
        <mxCell id="OsVrMNJ0mrb18MnXRC7H-96" value="" style="endArrow=classic;html=1;rounded=0;exitX=1;exitY=0.5;exitDx=0;exitDy=0;entryX=0;entryY=0.25;entryDx=0;entryDy=0;" parent="1" source="OsVrMNJ0mrb18MnXRC7H-63" target="OsVrMNJ0mrb18MnXRC7H-87" edge="1">
          <mxGeometry width="50" height="50" relative="1" as="geometry">
            <mxPoint x="620" y="315" as="sourcePoint" />
            <mxPoint x="670" y="265" as="targetPoint" />
            <Array as="points">
              <mxPoint x="600" y="185" />
              <mxPoint x="600" y="215" />
            </Array>
          </mxGeometry>
        </mxCell>
        <mxCell id="OsVrMNJ0mrb18MnXRC7H-97" value="" style="endArrow=classic;html=1;rounded=0;exitX=1;exitY=0.5;exitDx=0;exitDy=0;entryX=0;entryY=0.75;entryDx=0;entryDy=0;" parent="1" source="OsVrMNJ0mrb18MnXRC7H-68" target="OsVrMNJ0mrb18MnXRC7H-87" edge="1">
          <mxGeometry width="50" height="50" relative="1" as="geometry">
            <mxPoint x="585" y="295" as="sourcePoint" />
            <mxPoint x="635" y="245" as="targetPoint" />
            <Array as="points">
              <mxPoint x="600" y="265" />
              <mxPoint x="600" y="235" />
            </Array>
          </mxGeometry>
        </mxCell>
        <mxCell id="OsVrMNJ0mrb18MnXRC7H-98" value="" style="endArrow=classic;html=1;rounded=0;exitX=1;exitY=0.5;exitDx=0;exitDy=0;entryX=0;entryY=0.25;entryDx=0;entryDy=0;" parent="1" edge="1">
          <mxGeometry width="50" height="50" relative="1" as="geometry">
            <mxPoint x="580" y="345" as="sourcePoint" />
            <mxPoint x="620" y="375" as="targetPoint" />
            <Array as="points">
              <mxPoint x="600" y="345" />
              <mxPoint x="600" y="375" />
            </Array>
          </mxGeometry>
        </mxCell>
        <mxCell id="OsVrMNJ0mrb18MnXRC7H-99" value="" style="endArrow=classic;html=1;rounded=0;exitX=1;exitY=0.5;exitDx=0;exitDy=0;entryX=0;entryY=0.75;entryDx=0;entryDy=0;" parent="1" edge="1">
          <mxGeometry width="50" height="50" relative="1" as="geometry">
            <mxPoint x="580" y="425" as="sourcePoint" />
            <mxPoint x="620" y="395" as="targetPoint" />
            <Array as="points">
              <mxPoint x="600" y="425" />
              <mxPoint x="600" y="395" />
            </Array>
          </mxGeometry>
        </mxCell>
        <mxCell id="OsVrMNJ0mrb18MnXRC7H-100" value="" style="endArrow=classic;html=1;rounded=0;exitX=1;exitY=0.5;exitDx=0;exitDy=0;entryX=0;entryY=0.25;entryDx=0;entryDy=0;" parent="1" source="OsVrMNJ0mrb18MnXRC7H-87" target="OsVrMNJ0mrb18MnXRC7H-91" edge="1">
          <mxGeometry width="50" height="50" relative="1" as="geometry">
            <mxPoint x="670" y="315" as="sourcePoint" />
            <mxPoint x="720" y="265" as="targetPoint" />
            <Array as="points">
              <mxPoint x="670" y="225" />
              <mxPoint x="670" y="295" />
            </Array>
          </mxGeometry>
        </mxCell>
        <mxCell id="OsVrMNJ0mrb18MnXRC7H-101" value="" style="endArrow=classic;html=1;rounded=0;exitX=1;exitY=0.5;exitDx=0;exitDy=0;entryX=0;entryY=0.75;entryDx=0;entryDy=0;" parent="1" source="OsVrMNJ0mrb18MnXRC7H-89" target="OsVrMNJ0mrb18MnXRC7H-91" edge="1">
          <mxGeometry width="50" height="50" relative="1" as="geometry">
            <mxPoint x="410" y="335" as="sourcePoint" />
            <mxPoint x="460" y="285" as="targetPoint" />
            <Array as="points">
              <mxPoint x="670" y="385" />
              <mxPoint x="670" y="315" />
            </Array>
          </mxGeometry>
        </mxCell>
        <mxCell id="OsVrMNJ0mrb18MnXRC7H-104" value="" style="endArrow=classic;html=1;rounded=0;exitX=1;exitY=0.5;exitDx=0;exitDy=0;entryX=0.25;entryY=1;entryDx=0;entryDy=0;" parent="1" source="OsVrMNJ0mrb18MnXRC7H-91" target="sxIpjegynjYcKhdSV3K7-92" edge="1">
          <mxGeometry width="50" height="50" relative="1" as="geometry">
            <mxPoint x="740" y="425" as="sourcePoint" />
            <mxPoint x="490" y="690" as="targetPoint" />
            <Array as="points">
              <mxPoint x="740" y="305" />
              <mxPoint x="740" y="510" />
              <mxPoint x="600" y="510" />
              <mxPoint x="600" y="540" />
              <mxPoint x="480" y="540" />
              <mxPoint x="480" y="700" />
            </Array>
          </mxGeometry>
        </mxCell>
      </root>
    </mxGraphModel>
  </diagram>
</mxfile>
